<?xml version="1.0" encoding="UTF-8"?>
<svg xmlns="http://www.w3.org/2000/svg" xmlns:xlink="http://www.w3.org/1999/xlink" width="32px" height="32px" viewBox="0 0 32 32" version="1.1">
<g id="surface1">
<path style=" stroke:none;fill-rule:nonzero;fill:rgb(0%,0%,0%);fill-opacity:1;" d="M 23.546875 29.078125 L 8.453125 29.078125 C 6.992188 29.078125 5.59375 28.5 4.558594 27.46875 C 3.527344 26.433594 2.945312 25.035156 2.945312 23.574219 L 2.945312 8.480469 C 2.945312 7.019531 3.527344 5.617188 4.558594 4.585938 C 5.59375 3.554688 6.992188 2.972656 8.453125 2.972656 L 23.546875 2.972656 C 25.007812 2.972656 26.40625 3.554688 27.441406 4.585938 C 28.472656 5.617188 29.054688 7.019531 29.054688 8.480469 L 29.054688 23.574219 C 29.054688 25.035156 28.472656 26.433594 27.441406 27.46875 C 26.40625 28.5 25.007812 29.078125 23.546875 29.078125 Z M 8.453125 4.972656 C 7.523438 4.972656 6.632812 5.34375 5.972656 6 C 5.316406 6.65625 4.945312 7.550781 4.945312 8.480469 L 4.945312 23.574219 C 4.945312 24.503906 5.316406 25.394531 5.972656 26.054688 C 6.632812 26.710938 7.523438 27.078125 8.453125 27.078125 L 23.546875 27.078125 C 24.476562 27.078125 25.367188 26.710938 26.027344 26.054688 C 26.683594 25.394531 27.054688 24.503906 27.054688 23.574219 L 27.054688 8.480469 C 27.054688 7.550781 26.683594 6.65625 26.027344 6 C 25.367188 5.34375 24.476562 4.972656 23.546875 4.972656 Z M 8.453125 4.972656 "/>
<path style=" stroke:none;fill-rule:nonzero;fill:rgb(0%,0%,0%);fill-opacity:1;" d="M 21.011719 22.1875 C 20.882812 22.1875 20.75 22.164062 20.628906 22.113281 C 20.507812 22.0625 20.398438 21.988281 20.308594 21.894531 L 10.105469 11.691406 C 10.007812 11.601562 9.929688 11.492188 9.875 11.367188 C 9.820312 11.246094 9.789062 11.113281 9.789062 10.980469 C 9.785156 10.84375 9.8125 10.710938 9.859375 10.585938 C 9.910156 10.460938 9.984375 10.347656 10.082031 10.253906 C 10.175781 10.160156 10.289062 10.085938 10.414062 10.035156 C 10.539062 9.984375 10.671875 9.960938 10.804688 9.960938 C 10.941406 9.964844 11.074219 9.992188 11.195312 10.046875 C 11.316406 10.101562 11.429688 10.183594 11.519531 10.28125 L 21.71875 20.480469 C 21.90625 20.667969 22.011719 20.921875 22.011719 21.1875 C 22.011719 21.453125 21.90625 21.707031 21.71875 21.894531 C 21.628906 21.988281 21.519531 22.0625 21.394531 22.113281 C 21.273438 22.160156 21.144531 22.1875 21.011719 22.1875 Z M 21.011719 22.1875 "/>
<path style=" stroke:none;fill-rule:nonzero;fill:rgb(0%,0%,0%);fill-opacity:1;" d="M 10.921875 22.078125 C 10.789062 22.082031 10.65625 22.058594 10.535156 22.007812 C 10.414062 21.957031 10.304688 21.882812 10.214844 21.785156 C 10.117188 21.695312 10.042969 21.585938 9.992188 21.464844 C 9.941406 21.34375 9.914062 21.210938 9.914062 21.078125 C 9.914062 20.949219 9.941406 20.816406 9.992188 20.695312 C 10.042969 20.574219 10.117188 20.464844 10.214844 20.375 L 20.414062 10.171875 C 20.601562 9.984375 20.855469 9.882812 21.121094 9.882812 C 21.386719 9.882812 21.640625 9.984375 21.828125 10.171875 C 22.011719 10.363281 22.113281 10.621094 22.113281 10.886719 C 22.113281 11.152344 22.011719 11.410156 21.828125 11.601562 L 11.625 21.785156 C 11.535156 21.878906 11.425781 21.953125 11.304688 22.003906 C 11.179688 22.054688 11.050781 22.082031 10.921875 22.078125 Z M 10.921875 22.078125 "/>
</g>
</svg>
